<svg width="166" height="56" viewBox="0 0 166 56" fill="none" xmlns="http://www.w3.org/2000/svg">
<path d="M61.952 13.912V17.656H60.608V15H53.76V17.656H52.4V13.912H52.528C53.008 13.912 53.392 13.7093 53.68 13.304C53.9787 12.888 54.2027 12.152 54.352 11.096C54.5013 10.0293 54.576 8.52 54.576 6.568V4.616H60.832V13.912H61.952ZM59.28 13.912V5.704H55.936V7.784C55.936 10.8027 55.504 12.8453 54.64 13.912H59.28ZM66.9499 15.16C66.2672 15.16 65.7552 15.1333 65.4139 15.08C65.0725 15.0373 64.7312 14.936 64.3899 14.776C64.0379 14.616 63.7819 14.36 63.6219 14.008C63.4619 13.6453 63.3819 13.16 63.3819 12.552V9.864C63.3819 9.384 63.4405 8.96267 63.5579 8.6C63.6752 8.23733 63.8299 7.95467 64.0219 7.752C64.1819 7.57067 64.4219 7.432 64.7419 7.336C65.0725 7.22933 65.4085 7.16 65.7499 7.128C66.1339 7.10667 66.5339 7.096 66.9499 7.096C67.5045 7.096 67.9205 7.112 68.1979 7.144C68.4859 7.16533 68.7899 7.21867 69.1099 7.304C69.4405 7.4 69.6965 7.544 69.8779 7.736C70.0592 7.928 70.2139 8.20533 70.3419 8.568C70.4592 8.94133 70.5179 9.37333 70.5179 9.864V12.552C70.5179 13.4587 70.3099 14.12 69.8939 14.536C69.7232 14.7067 69.4779 14.84 69.1579 14.936C68.8379 15.032 68.5072 15.096 68.1659 15.128C67.7605 15.1493 67.3552 15.16 66.9499 15.16ZM66.9499 14.216C67.3979 14.216 67.7232 14.2053 67.9259 14.184C68.1285 14.1627 68.3259 14.104 68.5179 14.008C68.7099 13.9227 68.8432 13.784 68.9179 13.592C69.0032 13.3893 69.0459 13.112 69.0459 12.76V9.624C69.0459 9.144 68.9872 8.79733 68.8699 8.584C68.7525 8.36 68.5499 8.216 68.2619 8.152C67.9845 8.07733 67.5472 8.04 66.9499 8.04C66.3525 8.04 65.9099 8.07733 65.6219 8.152C65.3445 8.216 65.1472 8.36 65.0299 8.584C64.9125 8.79733 64.8539 9.144 64.8539 9.624V12.76C64.8539 13.112 64.8912 13.3893 64.9659 13.592C65.0512 13.784 65.1899 13.9227 65.3819 14.008C65.5739 14.104 65.7712 14.1627 65.9739 14.184C66.1765 14.2053 66.5019 14.216 66.9499 14.216ZM81.2031 12.728H76.0351V11.464L80.7391 4.616H82.5311V11.624H83.6511V12.728H82.5311V15H81.2031V12.728ZM81.2031 11.624V5.88L77.3151 11.624H81.2031ZM89.1084 15.16C88.639 15.16 88.255 15.144 87.9564 15.112C87.6684 15.08 87.359 15.016 87.0284 14.92C86.6764 14.824 86.3937 14.6853 86.1804 14.504C85.9777 14.312 85.807 14.0453 85.6684 13.704C85.5297 13.384 85.4604 12.984 85.4604 12.504V7.256C85.4604 6.776 85.5297 6.35467 85.6684 5.992C85.807 5.62933 85.9884 5.34133 86.2124 5.128C86.415 4.94667 86.6817 4.80267 87.0124 4.696C87.3537 4.57867 87.695 4.504 88.0364 4.472C88.4204 4.45067 88.7777 4.44 89.1084 4.44C89.5777 4.44 89.9564 4.456 90.2444 4.488C90.543 4.52 90.8577 4.584 91.1884 4.68C91.5404 4.78667 91.823 4.936 92.0364 5.128C92.2604 5.32 92.4417 5.592 92.5804 5.944C92.719 6.296 92.7884 6.728 92.7884 7.24V12.504C92.7884 12.9413 92.719 13.3307 92.5804 13.672C92.4417 14.0133 92.2604 14.28 92.0364 14.472C91.823 14.6533 91.551 14.8027 91.2204 14.92C90.8897 15.0267 90.5537 15.0907 90.2124 15.112C89.9137 15.144 89.5457 15.16 89.1084 15.16ZM89.1404 14.216C89.7057 14.216 90.143 14.1787 90.4524 14.104C90.7617 14.0187 90.9857 13.8587 91.1244 13.624C91.263 13.3893 91.3324 13.0427 91.3324 12.584V7.144C91.3324 6.64267 91.2577 6.26933 91.1084 6.024C90.9697 5.768 90.7457 5.59733 90.4364 5.512C90.1377 5.42667 89.7004 5.384 89.1244 5.384C88.5377 5.384 88.0897 5.42667 87.7804 5.512C87.4817 5.59733 87.263 5.768 87.1244 6.024C86.9857 6.26933 86.9164 6.64267 86.9164 7.144V12.584C86.9164 13.0427 86.9857 13.3893 87.1244 13.624C87.2737 13.8587 87.503 14.0187 87.8124 14.104C88.1217 14.1787 88.5644 14.216 89.1404 14.216ZM103.933 11.512C103.794 12.248 102.946 12.616 101.389 12.616C100.397 12.616 99.6985 12.44 99.2931 12.088C98.8985 11.7253 98.7011 11.16 98.7011 10.392V7.256H100.141V10.296C100.141 10.7867 100.269 11.1227 100.525 11.304C100.781 11.4853 101.208 11.576 101.805 11.576C102.392 11.576 102.834 11.5387 103.133 11.464C103.442 11.3787 103.65 11.2453 103.757 11.064C103.874 10.8827 103.933 10.6267 103.933 10.296V7.256H105.373V15H103.933V11.512ZM110.257 15.16C109.521 15.16 108.95 15.0907 108.545 14.952C108.15 14.8133 107.862 14.568 107.681 14.216C107.51 13.864 107.425 13.3573 107.425 12.696C107.425 12.1093 107.505 11.656 107.665 11.336C107.836 11.0053 108.118 10.7707 108.513 10.632C108.918 10.4933 109.489 10.424 110.225 10.424H112.545V9.192C112.545 8.904 112.486 8.68533 112.369 8.536C112.262 8.376 112.076 8.264 111.809 8.2C111.553 8.136 111.174 8.104 110.673 8.104C109.873 8.104 108.988 8.168 108.017 8.296V7.24C109.073 7.144 110.028 7.096 110.881 7.096C111.777 7.096 112.438 7.16533 112.865 7.304C113.292 7.432 113.585 7.66133 113.745 7.992C113.905 8.32267 113.985 8.83467 113.985 9.528V15H112.593V14.264C112.476 14.8613 111.697 15.16 110.257 15.16ZM110.497 14.216C111.02 14.216 111.462 14.1787 111.825 14.104C112.305 14.008 112.545 13.784 112.545 13.432V11.32H110.321C109.862 11.32 109.532 11.3573 109.329 11.432C109.126 11.496 108.993 11.624 108.929 11.816C108.865 12.008 108.833 12.3173 108.833 12.744C108.833 13.128 108.87 13.4267 108.945 13.64C109.02 13.8427 109.153 13.992 109.345 14.088C109.537 14.1733 109.825 14.216 110.209 14.216H110.497ZM119.602 15.16C119.069 15.16 118.68 15.1493 118.434 15.128C118.2 15.1067 117.928 15.0533 117.618 14.968C117.288 14.8827 117.032 14.7547 116.85 14.584C116.669 14.4133 116.514 14.1627 116.386 13.832C116.258 13.512 116.194 13.112 116.194 12.632V9.784C116.194 8.92 116.36 8.30133 116.69 7.928C116.872 7.71467 117.053 7.55467 117.234 7.448C117.426 7.33067 117.672 7.25067 117.97 7.208C118.269 7.16533 118.536 7.13867 118.77 7.128C119.005 7.10667 119.336 7.096 119.762 7.096C120.498 7.096 121.234 7.176 121.97 7.336V8.392C121.117 8.17867 120.322 8.072 119.586 8.072C119.032 8.072 118.621 8.11467 118.354 8.2C118.098 8.27467 117.917 8.41867 117.81 8.632C117.714 8.83467 117.666 9.14933 117.666 9.576V12.744C117.666 13.1387 117.72 13.432 117.826 13.624C117.944 13.816 118.146 13.9547 118.434 14.04C118.733 14.1147 119.17 14.152 119.746 14.152C120.525 14.152 121.304 14.0507 122.082 13.848V14.936C121.357 15.0853 120.53 15.16 119.602 15.16ZM127.184 15.16C126.502 15.16 125.99 15.1333 125.648 15.08C125.307 15.0373 124.966 14.936 124.624 14.776C124.272 14.616 124.016 14.36 123.856 14.008C123.696 13.6453 123.616 13.16 123.616 12.552V9.864C123.616 9.384 123.675 8.96267 123.792 8.6C123.91 8.23733 124.064 7.95467 124.256 7.752C124.416 7.57067 124.656 7.432 124.976 7.336C125.307 7.22933 125.643 7.16 125.984 7.128C126.368 7.10667 126.768 7.096 127.184 7.096C127.739 7.096 128.155 7.112 128.432 7.144C128.72 7.16533 129.024 7.21867 129.344 7.304C129.675 7.4 129.931 7.544 130.112 7.736C130.294 7.928 130.448 8.20533 130.576 8.568C130.694 8.94133 130.752 9.37333 130.752 9.864V12.552C130.752 13.4587 130.544 14.12 130.128 14.536C129.958 14.7067 129.712 14.84 129.392 14.936C129.072 15.032 128.742 15.096 128.4 15.128C127.995 15.1493 127.59 15.16 127.184 15.16ZM127.184 14.216C127.632 14.216 127.958 14.2053 128.16 14.184C128.363 14.1627 128.56 14.104 128.752 14.008C128.944 13.9227 129.078 13.784 129.152 13.592C129.238 13.3893 129.28 13.112 129.28 12.76V9.624C129.28 9.144 129.222 8.79733 129.104 8.584C128.987 8.36 128.784 8.216 128.496 8.152C128.219 8.07733 127.782 8.04 127.184 8.04C126.587 8.04 126.144 8.07733 125.856 8.152C125.579 8.216 125.382 8.36 125.264 8.584C125.147 8.79733 125.088 9.144 125.088 9.624V12.76C125.088 13.112 125.126 13.3893 125.2 13.592C125.286 13.784 125.424 13.9227 125.616 14.008C125.808 14.104 126.006 14.1627 126.208 14.184C126.411 14.2053 126.736 14.216 127.184 14.216ZM133.094 7.256H136.486C137.179 7.256 137.734 7.29867 138.15 7.384C138.566 7.45867 138.87 7.592 139.062 7.784C139.243 7.96533 139.361 8.152 139.414 8.344C139.467 8.536 139.494 8.80267 139.494 9.144V9.416C139.494 9.832 139.387 10.1413 139.174 10.344C138.961 10.5467 138.603 10.7013 138.102 10.808V10.872C139.339 11.0853 139.958 11.624 139.958 12.488V12.952C139.958 13.4747 139.851 13.8853 139.638 14.184C139.435 14.472 139.094 14.68 138.614 14.808C138.134 14.936 137.462 15 136.598 15H133.094V7.256ZM136.614 10.52C137.041 10.52 137.361 10.488 137.574 10.424C137.787 10.3493 137.931 10.2373 138.006 10.088C138.081 9.928 138.118 9.688 138.118 9.368V9.272C138.118 8.984 138.075 8.77067 137.99 8.632C137.915 8.49333 137.766 8.39733 137.542 8.344C137.329 8.28 137.003 8.248 136.566 8.248H134.534V10.52H136.614ZM136.678 13.96C137.179 13.96 137.558 13.928 137.814 13.864C138.07 13.8 138.246 13.6987 138.342 13.56C138.438 13.4107 138.486 13.192 138.486 12.904V12.392C138.486 12.1253 138.374 11.9013 138.15 11.72C137.915 11.5493 137.451 11.464 136.758 11.464H134.534V13.96H136.678ZM53.248 25.256H54.688V26.088C54.8053 25.4267 55.6853 25.096 57.328 25.096C58.3093 25.096 59.0507 25.304 59.552 25.72C60.0533 26.1253 60.304 26.648 60.304 27.288V30.472C60.304 30.9307 60.2347 31.3307 60.096 31.672C59.968 32.0133 59.7973 32.28 59.584 32.472C59.392 32.6533 59.1253 32.7973 58.784 32.904C58.4533 33.0107 58.1227 33.08 57.792 33.112C57.4933 33.144 57.1307 33.16 56.704 33.16C56.2347 33.16 55.8027 33.1067 55.408 33C55.024 32.8827 54.784 32.7173 54.688 32.504V36.168H53.248V25.256ZM56.736 32.184C57.2907 32.184 57.712 32.1467 58 32.072C58.2987 31.9867 58.512 31.8373 58.64 31.624C58.768 31.4107 58.832 31.0853 58.832 30.648V27.8C58.832 27.32 58.768 26.9627 58.64 26.728C58.512 26.4933 58.2987 26.3387 58 26.264C57.712 26.1787 57.2853 26.136 56.72 26.136C56.1547 26.136 55.7227 26.1787 55.424 26.264C55.136 26.3387 54.928 26.4933 54.8 26.728C54.672 26.9627 54.608 27.32 54.608 27.8V30.648C54.608 31.0747 54.672 31.4 54.8 31.624C54.9387 31.8373 55.1573 31.9867 55.456 32.072C55.7547 32.1467 56.1813 32.184 56.736 32.184ZM64.8976 33.16C64.1616 33.16 63.591 33.0907 63.1856 32.952C62.791 32.8133 62.503 32.568 62.3216 32.216C62.151 31.864 62.0656 31.3573 62.0656 30.696C62.0656 30.1093 62.1456 29.656 62.3056 29.336C62.4763 29.0053 62.759 28.7707 63.1536 28.632C63.559 28.4933 64.1296 28.424 64.8656 28.424H67.1856V27.192C67.1856 26.904 67.127 26.6853 67.0096 26.536C66.903 26.376 66.7163 26.264 66.4496 26.2C66.1936 26.136 65.815 26.104 65.3136 26.104C64.5136 26.104 63.6283 26.168 62.6576 26.296V25.24C63.7136 25.144 64.6683 25.096 65.5216 25.096C66.4176 25.096 67.079 25.1653 67.5056 25.304C67.9323 25.432 68.2256 25.6613 68.3856 25.992C68.5456 26.3227 68.6256 26.8347 68.6256 27.528V33H67.2336V32.264C67.1163 32.8613 66.3376 33.16 64.8976 33.16ZM65.1376 32.216C65.6603 32.216 66.103 32.1787 66.4656 32.104C66.9456 32.008 67.1856 31.784 67.1856 31.432V29.32H64.9616C64.503 29.32 64.1723 29.3573 63.9696 29.432C63.767 29.496 63.6336 29.624 63.5696 29.816C63.5056 30.008 63.4736 30.3173 63.4736 30.744C63.4736 31.128 63.511 31.4267 63.5856 31.64C63.6603 31.8427 63.7936 31.992 63.9856 32.088C64.1776 32.1733 64.4656 32.216 64.8496 32.216H65.1376ZM74.499 33.16C73.539 33.16 72.8137 33.0693 72.323 32.888C71.8323 32.7067 71.491 32.392 71.299 31.944C71.107 31.4853 71.011 30.8133 71.011 29.928V26.808C71.011 25.6773 71.3417 24.7653 72.003 24.072C72.675 23.368 73.715 22.84 75.123 22.488C76.2643 22.168 77.123 21.896 77.699 21.672V23.032C76.8777 23.3307 75.8857 23.6347 74.723 23.944C74.0723 24.072 73.5657 24.2267 73.203 24.408C72.8403 24.5893 72.5843 24.808 72.435 25.064C72.2963 25.3093 72.2323 25.6187 72.243 25.992V27C72.4883 26.5307 72.8403 26.2053 73.299 26.024C73.7577 25.832 74.3497 25.736 75.075 25.736C76.0883 25.736 76.8297 25.944 77.299 26.36C77.779 26.7653 78.019 27.3787 78.019 28.2V30.504C78.019 31.1973 77.891 31.736 77.635 32.12C77.379 32.504 76.995 32.776 76.483 32.936C75.9817 33.0853 75.3203 33.16 74.499 33.16ZM74.531 32.216C75.0963 32.216 75.5177 32.1787 75.795 32.104C76.083 32.0187 76.2857 31.864 76.403 31.64C76.531 31.4053 76.595 31.0533 76.595 30.584V28.216C76.595 27.8533 76.5417 27.576 76.435 27.384C76.3283 27.1813 76.1417 27.0373 75.875 26.952C75.6083 26.8667 75.2297 26.824 74.739 26.824C73.9817 26.824 73.4003 26.9307 72.995 27.144C72.5897 27.3573 72.3923 27.6667 72.403 28.072L72.435 30.584C72.4457 31.0533 72.5097 31.4053 72.627 31.64C72.755 31.864 72.963 32.0187 73.251 32.104C73.539 32.1787 73.9657 32.216 74.531 32.216ZM83.4968 33.16C82.8141 33.16 82.3021 33.1333 81.9608 33.08C81.6194 33.0373 81.2781 32.936 80.9368 32.776C80.5848 32.616 80.3288 32.36 80.1688 32.008C80.0088 31.6453 79.9288 31.16 79.9288 30.552V27.864C79.9288 27.384 79.9874 26.9627 80.1048 26.6C80.2221 26.2373 80.3768 25.9547 80.5688 25.752C80.7288 25.5707 80.9688 25.432 81.2888 25.336C81.6194 25.2293 81.9554 25.16 82.2968 25.128C82.6808 25.1067 83.0808 25.096 83.4968 25.096C84.0514 25.096 84.4674 25.112 84.7448 25.144C85.0328 25.1653 85.3368 25.2187 85.6568 25.304C85.9874 25.4 86.2434 25.544 86.4248 25.736C86.6061 25.928 86.7608 26.2053 86.8888 26.568C87.0061 26.9413 87.0648 27.3733 87.0648 27.864V30.552C87.0648 31.4587 86.8568 32.12 86.4408 32.536C86.2701 32.7067 86.0248 32.84 85.7048 32.936C85.3848 33.032 85.0541 33.096 84.7128 33.128C84.3074 33.1493 83.9021 33.16 83.4968 33.16ZM83.4968 32.216C83.9448 32.216 84.2701 32.2053 84.4728 32.184C84.6754 32.1627 84.8728 32.104 85.0648 32.008C85.2568 31.9227 85.3901 31.784 85.4648 31.592C85.5501 31.3893 85.5928 31.112 85.5928 30.76V27.624C85.5928 27.144 85.5341 26.7973 85.4168 26.584C85.2994 26.36 85.0968 26.216 84.8088 26.152C84.5314 26.0773 84.0941 26.04 83.4968 26.04C82.8994 26.04 82.4568 26.0773 82.1688 26.152C81.8914 26.216 81.6941 26.36 81.5768 26.584C81.4594 26.7973 81.4008 27.144 81.4008 27.624V30.76C81.4008 31.112 81.4381 31.3893 81.5128 31.592C81.5981 31.784 81.7368 31.9227 81.9288 32.008C82.1208 32.104 82.3181 32.1627 82.5208 32.184C82.7234 32.2053 83.0488 32.216 83.4968 32.216ZM91.2625 26.312H88.5425V25.256H95.4065V26.312H92.7025V33H91.2625V26.312ZM97.1386 25.256H98.6106V28.056H100.115C100.776 28.056 101.299 28.104 101.683 28.2C102.077 28.296 102.365 28.4667 102.547 28.712C102.728 28.9467 102.819 29.2827 102.819 29.72V31.32C102.819 32.44 101.875 33 99.9866 33H97.1386V25.256ZM104.051 25.256H105.491V33H104.051V25.256ZM99.8906 32.072C100.2 32.072 100.52 32.0293 100.851 31.944C101.224 31.848 101.411 31.576 101.411 31.128V30.152C101.411 29.8427 101.368 29.608 101.283 29.448C101.208 29.288 101.064 29.176 100.851 29.112C100.648 29.048 100.339 29.016 99.9226 29.016H98.5946V32.072H99.8906Z" fill="#292929"/>
<g clip-path="url(#clip0)">
<path d="M27.031 4.73074H13.969C12.527 4.73074 11.3539 5.90383 11.3539 7.34588V36.8079C11.3539 38.2499 12.527 39.423 13.969 39.423H27.031C28.4731 39.423 29.6462 38.2499 29.6462 36.8079V7.34597C29.6462 5.90383 28.4731 4.73074 27.031 4.73074ZM28.3846 36.8079C28.3846 37.5542 27.7772 38.1616 27.031 38.1616H13.969C13.2228 38.1616 12.6154 37.5542 12.6154 36.8079V7.34597C12.6154 6.59977 13.2228 5.99234 13.969 5.99234H27.031C27.7773 5.99234 28.3847 6.59977 28.3847 7.34597V36.8079H28.3846Z" fill="black"/>
<path d="M23.9693 1.57693H17.0308C16.6825 1.57693 16.4 1.8594 16.4 2.20773V5.36155C16.4 5.70989 16.6825 5.99235 17.0308 5.99235H23.9693C24.3176 5.99235 24.6001 5.70989 24.6001 5.36155V2.20773C24.6 1.8594 24.3176 1.57693 23.9693 1.57693ZM23.3385 4.73075H17.6615V2.83844H23.3385V4.73075Z" fill="black"/>
<path d="M25.1319 18.8996C25.0161 18.7175 24.8155 18.6075 24.6 18.6075H20.8154V12.9306C20.8154 12.6349 20.6099 12.379 20.3213 12.315C20.0301 12.2512 19.738 12.396 19.613 12.6639L15.1976 22.1255C15.1065 22.3207 15.1215 22.5494 15.2373 22.731C15.3531 22.9132 15.5537 23.0231 15.7692 23.0231H19.5538V28.7C19.5538 28.9957 19.7593 29.2516 20.0479 29.3157C20.0938 29.3259 20.1396 29.3308 20.1849 29.3308C20.4257 29.3308 20.6509 29.1922 20.7562 28.9667L25.1716 19.5052C25.2627 19.3099 25.2477 19.0812 25.1319 18.8996ZM19.5538 21.7615H16.7597L19.5538 15.7738V21.7615ZM20.8154 25.857V19.8692H23.6095L20.8154 25.857Z" fill="black"/>
</g>
<defs>
<clipPath id="clip0">
<rect width="37.8462" height="37.8462" fill="white" transform="translate(1.57692 1.57693)"/>
</clipPath>
</defs>
</svg>
