<svg width="246" height="44" viewBox="0 0 246 44" fill="none" xmlns="http://www.w3.org/2000/svg">
<path d="M57.344 17.616H61.056C61.9413 17.616 62.6453 17.7067 63.168 17.888C63.648 18.0587 63.968 18.272 64.128 18.528C64.2987 18.784 64.384 19.136 64.384 19.584V20.976C64.384 21.392 64.2667 21.7173 64.032 21.952C63.7973 22.176 63.44 22.3413 62.96 22.448V22.512C63.5253 22.608 63.9787 22.8053 64.32 23.104C64.672 23.392 64.848 23.7547 64.848 24.192V25.936C64.848 26.6933 64.5653 27.2267 64 27.536C63.4347 27.8453 62.4907 28 61.168 28H57.344V17.616ZM61.104 22.16C61.7547 22.16 62.2187 22.064 62.496 21.872C62.784 21.6693 62.928 21.3547 62.928 20.928V19.712C62.928 19.3173 62.784 19.04 62.496 18.88C62.208 18.72 61.728 18.64 61.056 18.64H58.896V22.16H61.104ZM61.168 26.928C61.9467 26.928 62.496 26.848 62.816 26.688C63.136 26.528 63.296 26.256 63.296 25.872V24.304C63.296 24.0267 63.2373 23.808 63.12 23.648C63.0133 23.4773 62.8427 23.3547 62.608 23.28C62.3733 23.216 62.1653 23.1787 61.984 23.168C61.8027 23.1467 61.5307 23.136 61.168 23.136H58.896V26.928H61.168ZM67.0605 16.8H68.5005V28H67.0605V16.8ZM73.686 28.16C72.694 28.16 71.9953 27.984 71.59 27.632C71.1953 27.2693 70.998 26.704 70.998 25.936V20.256H72.438V25.856C72.438 26.0587 72.454 26.224 72.486 26.352C72.5287 26.4693 72.598 26.592 72.694 26.72C72.886 26.9973 73.3553 27.136 74.102 27.136C74.8913 27.136 75.446 27.0613 75.766 26.912C76.0753 26.7627 76.23 26.4907 76.23 26.096V20.256H77.67V28H76.23V27.056C76.0913 27.792 75.2433 28.16 73.686 28.16ZM83.4339 28.16C81.0659 28.16 79.8819 27.3707 79.8819 25.792V22.736C79.8819 21.7973 80.1485 21.1253 80.6819 20.72C81.2259 20.304 82.1005 20.096 83.3059 20.096C84.4472 20.096 85.2685 20.2933 85.7699 20.688C86.2819 21.0827 86.5379 21.7653 86.5379 22.736V24.448H81.3379V25.616C81.3379 26.1493 81.5245 26.5333 81.8979 26.768C82.2712 27.0027 82.8472 27.12 83.6259 27.12C84.3619 27.12 85.2312 26.992 86.2339 26.736V27.84C85.2525 28.0533 84.3192 28.16 83.4339 28.16ZM85.0979 23.504V22.288C85.0979 21.8187 84.9539 21.4987 84.6659 21.328C84.3885 21.1467 83.9085 21.056 83.2259 21.056C82.5645 21.056 82.0845 21.1467 81.7859 21.328C81.4872 21.4987 81.3379 21.8187 81.3379 22.288V23.504H85.0979ZM91.9804 28.16C91.319 28.16 90.8017 28.0907 90.4284 27.952C90.055 27.8027 89.783 27.5573 89.6124 27.216C89.4524 26.864 89.3724 26.3733 89.3724 25.744V21.2H87.6444V20.256H89.3724V17.856H90.8284V20.256H93.5964V21.2H90.8284V25.824C90.8284 26.208 90.871 26.496 90.9564 26.688C91.0524 26.88 91.2124 27.0187 91.4364 27.104C91.671 27.1787 92.007 27.216 92.4444 27.216C92.583 27.216 92.967 27.1733 93.5964 27.088V28.032C93.0524 28.1173 92.5137 28.16 91.9804 28.16ZM98.4499 28.16C97.7672 28.16 97.2552 28.1333 96.9139 28.08C96.5725 28.0373 96.2312 27.936 95.8899 27.776C95.5379 27.616 95.2819 27.36 95.1219 27.008C94.9619 26.6453 94.8819 26.16 94.8819 25.552V22.864C94.8819 22.384 94.9405 21.9627 95.0579 21.6C95.1752 21.2373 95.3299 20.9547 95.5219 20.752C95.6819 20.5707 95.9219 20.432 96.2419 20.336C96.5725 20.2293 96.9085 20.16 97.2499 20.128C97.6339 20.1067 98.0339 20.096 98.4499 20.096C99.0045 20.096 99.4205 20.112 99.6979 20.144C99.9859 20.1653 100.29 20.2187 100.61 20.304C100.941 20.4 101.197 20.544 101.378 20.736C101.559 20.928 101.714 21.2053 101.842 21.568C101.959 21.9413 102.018 22.3733 102.018 22.864V25.552C102.018 26.4587 101.81 27.12 101.394 27.536C101.223 27.7067 100.978 27.84 100.658 27.936C100.338 28.032 100.007 28.096 99.6659 28.128C99.2605 28.1493 98.8552 28.16 98.4499 28.16ZM98.4499 27.216C98.8979 27.216 99.2232 27.2053 99.4259 27.184C99.6285 27.1627 99.8259 27.104 100.018 27.008C100.21 26.9227 100.343 26.784 100.418 26.592C100.503 26.3893 100.546 26.112 100.546 25.76V22.624C100.546 22.144 100.487 21.7973 100.37 21.584C100.253 21.36 100.05 21.216 99.7619 21.152C99.4845 21.0773 99.0472 21.04 98.4499 21.04C97.8525 21.04 97.4099 21.0773 97.1219 21.152C96.8445 21.216 96.6472 21.36 96.5299 21.584C96.4125 21.7973 96.3539 22.144 96.3539 22.624V25.76C96.3539 26.112 96.3912 26.3893 96.4659 26.592C96.5512 26.784 96.6899 26.9227 96.8819 27.008C97.0739 27.104 97.2712 27.1627 97.4739 27.184C97.6765 27.2053 98.0019 27.216 98.4499 27.216ZM107.544 28.16C106.861 28.16 106.349 28.1333 106.008 28.08C105.666 28.0373 105.325 27.936 104.984 27.776C104.632 27.616 104.376 27.36 104.216 27.008C104.056 26.6453 103.976 26.16 103.976 25.552V22.864C103.976 22.384 104.034 21.9627 104.152 21.6C104.269 21.2373 104.424 20.9547 104.616 20.752C104.776 20.5707 105.016 20.432 105.336 20.336C105.666 20.2293 106.002 20.16 106.344 20.128C106.728 20.1067 107.128 20.096 107.544 20.096C108.098 20.096 108.514 20.112 108.792 20.144C109.08 20.1653 109.384 20.2187 109.704 20.304C110.034 20.4 110.29 20.544 110.472 20.736C110.653 20.928 110.808 21.2053 110.936 21.568C111.053 21.9413 111.112 22.3733 111.112 22.864V25.552C111.112 26.4587 110.904 27.12 110.488 27.536C110.317 27.7067 110.072 27.84 109.752 27.936C109.432 28.032 109.101 28.096 108.76 28.128C108.354 28.1493 107.949 28.16 107.544 28.16ZM107.544 27.216C107.992 27.216 108.317 27.2053 108.52 27.184C108.722 27.1627 108.92 27.104 109.112 27.008C109.304 26.9227 109.437 26.784 109.512 26.592C109.597 26.3893 109.64 26.112 109.64 25.76V22.624C109.64 22.144 109.581 21.7973 109.464 21.584C109.346 21.36 109.144 21.216 108.856 21.152C108.578 21.0773 108.141 21.04 107.544 21.04C106.946 21.04 106.504 21.0773 106.216 21.152C105.938 21.216 105.741 21.36 105.624 21.584C105.506 21.7973 105.448 22.144 105.448 22.624V25.76C105.448 26.112 105.485 26.3893 105.56 26.592C105.645 26.784 105.784 26.9227 105.976 27.008C106.168 27.104 106.365 27.1627 106.568 27.184C106.77 27.2053 107.096 27.216 107.544 27.216ZM116.605 28.16C115.944 28.16 115.427 28.0907 115.053 27.952C114.68 27.8027 114.408 27.5573 114.237 27.216C114.077 26.864 113.997 26.3733 113.997 25.744V21.2H112.269V20.256H113.997V17.856H115.453V20.256H118.221V21.2H115.453V25.824C115.453 26.208 115.496 26.496 115.581 26.688C115.677 26.88 115.837 27.0187 116.061 27.104C116.296 27.1787 116.632 27.216 117.069 27.216C117.208 27.216 117.592 27.1733 118.221 27.088V28.032C117.677 28.1173 117.139 28.16 116.605 28.16ZM119.795 16.8H121.235V21.2C121.384 20.464 122.232 20.096 123.779 20.096C124.771 20.096 125.464 20.2773 125.859 20.64C126.264 20.992 126.467 21.552 126.467 22.32V28H125.027V22.416C125.027 22.2133 125.011 22.048 124.979 21.92C124.947 21.792 124.883 21.664 124.787 21.536C124.574 21.2693 124.099 21.136 123.363 21.136C122.776 21.136 122.328 21.1787 122.019 21.264C121.72 21.3387 121.512 21.4667 121.395 21.648C121.288 21.8293 121.235 22.0853 121.235 22.416V28H119.795V16.8Z" fill="black"/>
<path d="M217.344 25.728H212.176V24.464L216.88 17.616H218.672V24.624H219.792V25.728H218.672V28H217.344V25.728ZM217.344 24.624V18.88L213.456 24.624H217.344ZM221.745 26.272H223.601V28H221.745V26.272ZM229.343 28.16C228.873 28.16 228.489 28.144 228.191 28.112C227.903 28.08 227.593 28.016 227.263 27.92C226.911 27.824 226.628 27.6853 226.415 27.504C226.212 27.312 226.041 27.0453 225.903 26.704C225.764 26.384 225.695 25.984 225.695 25.504V20.256C225.695 19.776 225.764 19.3547 225.903 18.992C226.041 18.6293 226.223 18.3413 226.447 18.128C226.649 17.9467 226.916 17.8027 227.247 17.696C227.588 17.5787 227.929 17.504 228.271 17.472C228.655 17.4507 229.012 17.44 229.343 17.44C229.812 17.44 230.191 17.456 230.479 17.488C230.777 17.52 231.092 17.584 231.423 17.68C231.775 17.7867 232.057 17.936 232.271 18.128C232.495 18.32 232.676 18.592 232.815 18.944C232.953 19.296 233.023 19.728 233.023 20.24V25.504C233.023 25.9413 232.953 26.3307 232.815 26.672C232.676 27.0133 232.495 27.28 232.271 27.472C232.057 27.6533 231.785 27.8027 231.455 27.92C231.124 28.0267 230.788 28.0907 230.447 28.112C230.148 28.144 229.78 28.16 229.343 28.16ZM229.375 27.216C229.94 27.216 230.377 27.1787 230.687 27.104C230.996 27.0187 231.22 26.8587 231.359 26.624C231.497 26.3893 231.567 26.0427 231.567 25.584V20.144C231.567 19.6427 231.492 19.2693 231.343 19.024C231.204 18.768 230.98 18.5973 230.671 18.512C230.372 18.4267 229.935 18.384 229.359 18.384C228.772 18.384 228.324 18.4267 228.015 18.512C227.716 18.5973 227.497 18.768 227.359 19.024C227.22 19.2693 227.151 19.6427 227.151 20.144V25.584C227.151 26.0427 227.22 26.3893 227.359 26.624C227.508 26.8587 227.737 27.0187 228.047 27.104C228.356 27.1787 228.799 27.216 229.375 27.216Z" fill="black"/>
<g clip-path="url(#clip0)">
<path d="M34.2054 27.5212L29.1636 22L34.2054 16.4794C34.3637 16.3056 34.4445 16.0739 34.4276 15.839C34.4107 15.6039 34.2984 15.3859 34.1163 15.2364L27.9874 10.1959C27.7305 9.98455 27.3753 9.94016 27.0746 10.0825C26.7739 10.2243 26.5823 10.5267 26.5823 10.8592V19.1736L23.0639 15.3204C22.7443 14.9702 22.2004 14.9455 21.8502 15.2654C21.4999 15.5854 21.4753 16.1286 21.7952 16.4792L26.5823 21.7217V22.2784L21.7952 27.5212C21.475 27.8711 21.4997 28.4147 21.8502 28.7349C22.2007 29.0551 22.7441 29.0304 23.064 28.6796L26.5821 24.827V33.1408C26.5821 33.473 26.774 33.7757 27.0744 33.9178C27.1913 33.9728 27.3167 34 27.4413 34C27.6369 34 27.8305 33.9336 27.9874 33.8047L34.1163 28.7641C34.2984 28.6143 34.4107 28.3964 34.4276 28.1615C34.4445 27.9267 34.3643 27.695 34.2054 27.5212ZM28.3007 12.6784L32.326 15.9885L28.3007 20.3968V12.6784ZM28.3007 31.3216V23.6035L32.326 28.0115L28.3007 31.3216Z" fill="black"/>
</g>
<defs>
<clipPath id="clip0">
<rect width="24" height="24" fill="white" transform="translate(16 10)"/>
</clipPath>
</defs>
</svg>
