<svg width="166" height="56" viewBox="0 0 166 56" fill="none" xmlns="http://www.w3.org/2000/svg">
<path d="M55.904 5.704H52.384V4.616H60.976V5.704H57.456V15H55.904V5.704ZM65.8714 15.16C63.5034 15.16 62.3194 14.3707 62.3194 12.792V9.736C62.3194 8.79733 62.586 8.12533 63.1194 7.72C63.6634 7.304 64.538 7.096 65.7434 7.096C66.8847 7.096 67.706 7.29333 68.2074 7.688C68.7194 8.08267 68.9754 8.76533 68.9754 9.736V11.448H63.7754V12.616C63.7754 13.1493 63.962 13.5333 64.3354 13.768C64.7087 14.0027 65.2847 14.12 66.0634 14.12C66.7994 14.12 67.6687 13.992 68.6714 13.736V14.84C67.69 15.0533 66.7567 15.16 65.8714 15.16ZM67.5354 10.504V9.288C67.5354 8.81867 67.3914 8.49867 67.1034 8.328C66.826 8.14667 66.346 8.056 65.6634 8.056C65.002 8.056 64.522 8.14667 64.2234 8.328C63.9247 8.49867 63.7754 8.81867 63.7754 9.288V10.504H67.5354ZM73.1219 11.016L70.2419 7.256H71.9859L74.0659 10.088L76.1619 7.256H77.9059L74.8659 11.016L78.0659 15H76.3219L74.0659 11.944L71.8259 15H70.0819L73.1219 11.016ZM79.4668 7.256H80.9068V10.472H84.7148V7.256H86.1548V15H84.7148V11.528H80.9068V15H79.4668V7.256ZM91.9343 15.16C91.2516 15.16 90.7396 15.1333 90.3983 15.08C90.0569 15.0373 89.7156 14.936 89.3743 14.776C89.0223 14.616 88.7663 14.36 88.6063 14.008C88.4463 13.6453 88.3663 13.16 88.3663 12.552V9.864C88.3663 9.384 88.4249 8.96267 88.5423 8.6C88.6596 8.23733 88.8143 7.95467 89.0063 7.752C89.1663 7.57067 89.4063 7.432 89.7263 7.336C90.0569 7.22933 90.3929 7.16 90.7343 7.128C91.1183 7.10667 91.5183 7.096 91.9343 7.096C92.4889 7.096 92.9049 7.112 93.1823 7.144C93.4703 7.16533 93.7743 7.21867 94.0943 7.304C94.4249 7.4 94.6809 7.544 94.8623 7.736C95.0436 7.928 95.1983 8.20533 95.3263 8.568C95.4436 8.94133 95.5023 9.37333 95.5023 9.864V12.552C95.5023 13.4587 95.2943 14.12 94.8783 14.536C94.7076 14.7067 94.4623 14.84 94.1423 14.936C93.8223 15.032 93.4916 15.096 93.1503 15.128C92.7449 15.1493 92.3396 15.16 91.9343 15.16ZM91.9343 14.216C92.3823 14.216 92.7076 14.2053 92.9103 14.184C93.1129 14.1627 93.3103 14.104 93.5023 14.008C93.6943 13.9227 93.8276 13.784 93.9023 13.592C93.9876 13.3893 94.0303 13.112 94.0303 12.76V9.624C94.0303 9.144 93.9716 8.79733 93.8543 8.584C93.7369 8.36 93.5343 8.216 93.2463 8.152C92.9689 8.07733 92.5316 8.04 91.9343 8.04C91.3369 8.04 90.8943 8.07733 90.6063 8.152C90.3289 8.216 90.1316 8.36 90.0143 8.584C89.8969 8.79733 89.8383 9.144 89.8383 9.624V12.76C89.8383 13.112 89.8756 13.3893 89.9503 13.592C90.0356 13.784 90.1743 13.9227 90.3663 14.008C90.5583 14.104 90.7556 14.1627 90.9583 14.184C91.1609 14.2053 91.4863 14.216 91.9343 14.216ZM97.444 15.016C97.284 15.016 97.1293 15 96.98 14.968V13.736C97.1293 13.768 97.2787 13.784 97.428 13.784C97.8867 13.784 98.2493 13.4533 98.516 12.792C98.7933 12.12 98.932 10.8827 98.932 9.08V7.256H104.196V15H102.756V8.2H100.212V9.32C100.212 11.08 100.004 12.472 99.588 13.496C99.172 14.5093 98.4573 15.016 97.444 15.016ZM109.966 15.16C109.283 15.16 108.771 15.1333 108.43 15.08C108.088 15.0373 107.747 14.936 107.406 14.776C107.054 14.616 106.798 14.36 106.638 14.008C106.478 13.6453 106.398 13.16 106.398 12.552V9.864C106.398 9.384 106.456 8.96267 106.574 8.6C106.691 8.23733 106.846 7.95467 107.038 7.752C107.198 7.57067 107.438 7.432 107.758 7.336C108.088 7.22933 108.424 7.16 108.766 7.128C109.15 7.10667 109.55 7.096 109.966 7.096C110.52 7.096 110.936 7.112 111.214 7.144C111.502 7.16533 111.806 7.21867 112.126 7.304C112.456 7.4 112.712 7.544 112.894 7.736C113.075 7.928 113.23 8.20533 113.358 8.568C113.475 8.94133 113.534 9.37333 113.534 9.864V12.552C113.534 13.4587 113.326 14.12 112.91 14.536C112.739 14.7067 112.494 14.84 112.174 14.936C111.854 15.032 111.523 15.096 111.182 15.128C110.776 15.1493 110.371 15.16 109.966 15.16ZM109.966 14.216C110.414 14.216 110.739 14.2053 110.942 14.184C111.144 14.1627 111.342 14.104 111.534 14.008C111.726 13.9227 111.859 13.784 111.934 13.592C112.019 13.3893 112.062 13.112 112.062 12.76V9.624C112.062 9.144 112.003 8.79733 111.886 8.584C111.768 8.36 111.566 8.216 111.278 8.152C111 8.07733 110.563 8.04 109.966 8.04C109.368 8.04 108.926 8.07733 108.638 8.152C108.36 8.216 108.163 8.36 108.046 8.584C107.928 8.79733 107.87 9.144 107.87 9.624V12.76C107.87 13.112 107.907 13.3893 107.982 13.592C108.067 13.784 108.206 13.9227 108.398 14.008C108.59 14.104 108.787 14.1627 108.99 14.184C109.192 14.2053 109.518 14.216 109.966 14.216ZM115.875 7.256H120.931V8.312H117.315V15H115.875V7.256ZM129.41 7.256V15H127.97V9.288L123.938 15H122.498V7.256H123.938V13.16L128.05 7.256H129.41ZM138.144 7.256V15H136.704V12.216H135.008L133.04 15H131.136L133.504 11.944C132.896 11.848 132.454 11.6507 132.176 11.352C131.91 11.0427 131.776 10.6213 131.776 10.088V9.256C131.776 8.70133 131.851 8.28533 132 8.008C132.16 7.73067 132.427 7.53867 132.8 7.432C133.174 7.31467 133.728 7.256 134.464 7.256H138.144ZM136.704 8.248H134.608C134.214 8.248 133.92 8.28 133.728 8.344C133.536 8.408 133.403 8.52 133.328 8.68C133.264 8.84 133.232 9.07467 133.232 9.384V9.928C133.232 10.344 133.328 10.664 133.52 10.888C133.723 11.112 134.027 11.224 134.432 11.224H136.704V8.248ZM53.344 22.616H60.48V23.704H54.896V27.096H59.952V28.184H54.896V33H53.344V22.616ZM64.5851 33.16C63.8491 33.16 63.2785 33.0907 62.8731 32.952C62.4785 32.8133 62.1905 32.568 62.0091 32.216C61.8385 31.864 61.7531 31.3573 61.7531 30.696C61.7531 30.1093 61.8331 29.656 61.9931 29.336C62.1638 29.0053 62.4465 28.7707 62.8411 28.632C63.2465 28.4933 63.8171 28.424 64.5531 28.424H66.8731V27.192C66.8731 26.904 66.8145 26.6853 66.6971 26.536C66.5905 26.376 66.4038 26.264 66.1371 26.2C65.8811 26.136 65.5025 26.104 65.0011 26.104C64.2011 26.104 63.3158 26.168 62.3451 26.296V25.24C63.4011 25.144 64.3558 25.096 65.2091 25.096C66.1051 25.096 66.7665 25.1653 67.1931 25.304C67.6198 25.432 67.9131 25.6613 68.0731 25.992C68.2331 26.3227 68.3131 26.8347 68.3131 27.528V33H66.9211V32.264C66.8038 32.8613 66.0251 33.16 64.5851 33.16ZM64.8251 32.216C65.3478 32.216 65.7905 32.1787 66.1531 32.104C66.6331 32.008 66.8731 31.784 66.8731 31.432V29.32H64.6491C64.1905 29.32 63.8598 29.3573 63.6571 29.432C63.4545 29.496 63.3211 29.624 63.2571 29.816C63.1931 30.008 63.1611 30.3173 63.1611 30.744C63.1611 31.128 63.1985 31.4267 63.2731 31.64C63.3478 31.8427 63.4811 31.992 63.6731 32.088C63.8651 32.1733 64.1531 32.216 64.5371 32.216H64.8251ZM73.1785 33.16C72.3572 33.16 71.4718 33.096 70.5225 32.968V31.864C71.7705 32.0667 72.6665 32.168 73.2105 32.168C73.8932 32.168 74.3838 32.104 74.6825 31.976C74.9812 31.8373 75.1305 31.5867 75.1305 31.224V30.44C75.1305 30.1093 75.0185 29.8747 74.7945 29.736C74.5705 29.5973 74.2078 29.528 73.7065 29.528H72.8265C72.0265 29.528 71.4132 29.3627 70.9865 29.032C70.5705 28.7013 70.3625 28.2373 70.3625 27.64V26.92C70.3625 25.704 71.5145 25.096 73.8185 25.096C73.9892 25.096 74.7732 25.1387 76.1705 25.224V26.264C75.2212 26.1147 74.4158 26.04 73.7545 26.04C72.9972 26.04 72.4798 26.1147 72.2025 26.264C71.9252 26.4133 71.7865 26.664 71.7865 27.016V27.672C71.7865 28.1947 72.2612 28.456 73.2105 28.456H74.1065C75.7385 28.456 76.5545 29.064 76.5545 30.28V30.952C76.5545 31.752 76.2772 32.3227 75.7225 32.664C75.1678 32.9947 74.3198 33.16 73.1785 33.16ZM81.7929 33.16C81.1315 33.16 80.6142 33.0907 80.2409 32.952C79.8675 32.8027 79.5955 32.5573 79.4249 32.216C79.2649 31.864 79.1849 31.3733 79.1849 30.744V26.2H77.4569V25.256H79.1849V22.856H80.6409V25.256H83.4089V26.2H80.6409V30.824C80.6409 31.208 80.6835 31.496 80.7689 31.688C80.8649 31.88 81.0249 32.0187 81.2489 32.104C81.4835 32.1787 81.8195 32.216 82.2569 32.216C82.3955 32.216 82.7795 32.1733 83.4089 32.088V33.032C82.8649 33.1173 82.3262 33.16 81.7929 33.16ZM88.7659 22.616H95.9019V23.704H90.3179V27.096H95.3739V28.184H90.3179V33H88.7659V22.616ZM100.311 33.16C99.319 33.16 98.6203 32.984 98.215 32.632C97.8203 32.2693 97.623 31.704 97.623 30.936V25.256H99.063V30.856C99.063 31.0587 99.079 31.224 99.111 31.352C99.1537 31.4693 99.223 31.592 99.319 31.72C99.511 31.9973 99.9803 32.136 100.727 32.136C101.516 32.136 102.071 32.0613 102.391 31.912C102.7 31.7627 102.855 31.4907 102.855 31.096V25.256H104.295V33H102.855V32.056C102.716 32.792 101.868 33.16 100.311 33.16ZM110.059 33.16C107.691 33.16 106.507 32.3707 106.507 30.792V27.736C106.507 26.7973 106.774 26.1253 107.307 25.72C107.851 25.304 108.726 25.096 109.931 25.096C111.072 25.096 111.894 25.2933 112.395 25.688C112.907 26.0827 113.163 26.7653 113.163 27.736V29.448H107.963V30.616C107.963 31.1493 108.15 31.5333 108.523 31.768C108.896 32.0027 109.472 32.12 110.251 32.12C110.987 32.12 111.856 31.992 112.859 31.736V32.84C111.878 33.0533 110.944 33.16 110.059 33.16ZM111.723 28.504V27.288C111.723 26.8187 111.579 26.4987 111.291 26.328C111.014 26.1467 110.534 26.056 109.851 26.056C109.19 26.056 108.71 26.1467 108.411 26.328C108.112 26.4987 107.963 26.8187 107.963 27.288V28.504H111.723ZM115.357 21.8H116.797V33H115.357V21.8Z" fill="#292929"/>
<g clip-path="url(#clip0)">
<path d="M30.5923 9.77691H28.7V3.46924C28.7 2.39691 27.88 1.57693 26.8077 1.57693C25.7353 1.57693 24.9154 2.39691 24.9154 3.46924V9.77691H16.0846V3.46924C16.0846 2.39691 15.2647 1.57693 14.1923 1.57693C13.12 1.57693 12.3 2.39691 12.3 3.46924V9.77691H10.4077C10.0293 9.77691 9.77697 10.0292 9.77697 10.4077V15.2015C9.77697 18.3553 10.9754 21.383 13.1201 23.7169C15.0124 25.8615 16.0847 28.6369 16.0847 31.4753V33.1153C16.0847 34.8815 17.4724 36.2692 19.2386 36.2692H19.8693V38.7923C19.8693 39.1707 20.1216 39.423 20.5001 39.423C20.8785 39.423 21.1308 39.1707 21.1308 38.7923V36.2692H21.7616C23.5277 36.2692 24.9154 34.8815 24.9154 33.1153V31.5384C24.9154 28.6369 25.9246 25.9246 27.8801 23.78C30.0247 21.4462 31.2232 18.3553 31.2232 15.2016V10.4077C31.2231 10.0293 30.9707 9.77691 30.5923 9.77691ZM26.1769 3.46924C26.1769 3.09078 26.4292 2.8385 26.8077 2.8385C27.1861 2.8385 27.4384 3.09078 27.4384 3.46924V9.77691H26.1769V3.46924ZM13.5615 3.46924C13.5615 3.15383 13.8138 2.8385 14.1923 2.8385C14.5707 2.8385 14.823 3.09078 14.823 3.46924V9.77691H13.5614V3.46924H13.5615ZM29.9615 15.1385C29.9615 18.04 28.9523 20.7524 26.9969 22.897C24.8523 25.2308 23.6539 28.3215 23.6539 31.4754V33.1154C23.6539 34.1878 22.8339 35.0077 21.7616 35.0077H19.2385C18.1662 35.0077 17.3462 34.1878 17.3462 33.1154V31.5385C17.3462 28.3847 16.1478 25.2939 14.0031 22.9601C12.1108 20.8154 11.0385 18.04 11.0385 15.2016V11.0385H12.9308H15.4538H25.5461H28.0692H29.9615V15.1385Z" fill="black"/>
<path d="M23.0231 17.977H19.4907L22.8338 14.6339C23.0861 14.3816 23.0861 14.0031 22.8338 13.7508C22.5815 13.4984 22.2031 13.4985 21.9507 13.7508L17.5354 18.1661C17.3461 18.3554 17.2831 18.6076 17.4092 18.86C17.4722 19.1123 17.7246 19.2385 17.9769 19.2385H21.5092L18.1661 22.5816C17.9138 22.8338 17.9138 23.2123 18.1661 23.4647C18.2923 23.5908 18.4184 23.6539 18.6076 23.6539C18.7968 23.6539 18.923 23.5908 19.0491 23.4647L23.4645 19.0493C23.6537 18.8601 23.7168 18.6078 23.5907 18.3554C23.5277 18.1031 23.2754 17.977 23.0231 17.977Z" fill="black"/>
</g>
<defs>
<clipPath id="clip0">
<rect width="37.8462" height="37.8462" fill="white" transform="translate(1.57692 1.57693)"/>
</clipPath>
</defs>
</svg>
