<svg width="166" height="56" viewBox="0 0 166 56" fill="none" xmlns="http://www.w3.org/2000/svg">
<path d="M53.344 4.616H59.696V5.72H54.896V9.096H56.448C57.0027 9.096 57.456 9.112 57.808 9.144C58.16 9.16533 58.5067 9.21867 58.848 9.304C59.2 9.38933 59.4827 9.50667 59.696 9.656C59.9093 9.80533 60.08 10.008 60.208 10.264C60.336 10.5307 60.4 10.8453 60.4 11.208V12.744C60.4 14.248 59.1787 15 56.736 15H53.344V4.616ZM56.624 13.944C56.9227 13.944 57.1627 13.9333 57.344 13.912C57.5253 13.8907 57.7493 13.848 58.016 13.784C58.2933 13.7093 58.5067 13.5813 58.656 13.4C58.8053 13.208 58.88 12.968 58.88 12.68V11.384C58.88 10.936 58.7093 10.6213 58.368 10.44C58.0267 10.248 57.456 10.152 56.656 10.152H54.88V13.944H56.624ZM65.637 15.16C63.269 15.16 62.085 14.3707 62.085 12.792V9.736C62.085 8.79733 62.3517 8.12533 62.885 7.72C63.429 7.304 64.3037 7.096 65.509 7.096C66.6503 7.096 67.4717 7.29333 67.973 7.688C68.485 8.08267 68.741 8.76533 68.741 9.736V11.448H63.541V12.616C63.541 13.1493 63.7277 13.5333 64.101 13.768C64.4743 14.0027 65.0503 14.12 65.829 14.12C66.565 14.12 67.4343 13.992 68.437 13.736V14.84C67.4557 15.0533 66.5223 15.16 65.637 15.16ZM67.301 10.504V9.288C67.301 8.81867 67.157 8.49867 66.869 8.328C66.5917 8.14667 66.1117 8.056 65.429 8.056C64.7677 8.056 64.2877 8.14667 63.989 8.328C63.6903 8.49867 63.541 8.81867 63.541 9.288V10.504H67.301ZM72.6635 15.16C72.0342 15.16 71.3088 15.0693 70.4875 14.888V13.752C71.2875 13.9867 72.0128 14.104 72.6635 14.104C73.3995 14.104 73.9382 14.024 74.2795 13.864C74.6208 13.6933 74.7915 13.3733 74.7915 12.904V12.408C74.7915 12.0133 74.6155 11.752 74.2635 11.624C73.9222 11.4853 73.4368 11.416 72.8075 11.416H71.9275V10.424H72.5355C73.1862 10.424 73.6822 10.3493 74.0235 10.2C74.3648 10.0507 74.5355 9.784 74.5355 9.4V8.92C74.5355 8.36533 73.8955 8.088 72.6155 8.088C71.9435 8.088 71.2875 8.152 70.6475 8.28V7.24C71.2555 7.144 71.9062 7.096 72.5995 7.096C73.4208 7.096 74.0608 7.13867 74.5195 7.224C74.9782 7.30933 75.3355 7.46933 75.5915 7.704C75.8582 7.93867 75.9915 8.31733 75.9915 8.84V9.464C75.9915 9.80533 75.8635 10.088 75.6075 10.312C75.3622 10.5253 75.0422 10.664 74.6475 10.728V10.792C75.7462 10.9627 76.2955 11.4373 76.2955 12.216V13.016C76.2955 13.3787 76.2208 13.704 76.0715 13.992C75.9328 14.2693 75.7462 14.4827 75.5115 14.632C75.1915 14.8347 74.7862 14.9733 74.2955 15.048C73.8155 15.1227 73.2715 15.16 72.6635 15.16ZM80.338 15.112L77.346 7.256H78.914L81.074 13.576H81.106L83.058 7.256H84.514L80.626 18.328H79.122L80.338 15.112ZM85.9534 7.256H92.4974V15H91.0574V8.312H87.3934V15H85.9534V7.256ZM95.0918 7.256H96.5318V8.088C96.6491 7.42667 97.5291 7.096 99.1718 7.096C100.153 7.096 100.894 7.304 101.396 7.72C101.897 8.12533 102.148 8.648 102.148 9.288V12.472C102.148 12.9307 102.078 13.3307 101.94 13.672C101.812 14.0133 101.641 14.28 101.428 14.472C101.236 14.6533 100.969 14.7973 100.628 14.904C100.297 15.0107 99.9664 15.08 99.6358 15.112C99.3371 15.144 98.9744 15.16 98.5477 15.16C98.0784 15.16 97.6464 15.1067 97.2518 15C96.8678 14.8827 96.6278 14.7173 96.5318 14.504V18.168H95.0918V7.256ZM98.5798 14.184C99.1344 14.184 99.5558 14.1467 99.8438 14.072C100.142 13.9867 100.356 13.8373 100.484 13.624C100.612 13.4107 100.676 13.0853 100.676 12.648V9.8C100.676 9.32 100.612 8.96267 100.484 8.728C100.356 8.49333 100.142 8.33867 99.8438 8.264C99.5558 8.17867 99.1291 8.136 98.5638 8.136C97.9984 8.136 97.5664 8.17867 97.2678 8.264C96.9798 8.33867 96.7718 8.49333 96.6438 8.728C96.5158 8.96267 96.4518 9.32 96.4518 9.8V12.648C96.4518 13.0747 96.5158 13.4 96.6438 13.624C96.7824 13.8373 97.0011 13.9867 97.2998 14.072C97.5984 14.1467 98.0251 14.184 98.5798 14.184ZM107.621 15.16C105.253 15.16 104.069 14.3707 104.069 12.792V9.736C104.069 8.79733 104.336 8.12533 104.869 7.72C105.413 7.304 106.288 7.096 107.493 7.096C108.635 7.096 109.456 7.29333 109.957 7.688C110.469 8.08267 110.725 8.76533 110.725 9.736V11.448H105.525V12.616C105.525 13.1493 105.712 13.5333 106.085 13.768C106.459 14.0027 107.035 14.12 107.813 14.12C108.549 14.12 109.419 13.992 110.421 13.736V14.84C109.44 15.0533 108.507 15.16 107.621 15.16ZM109.285 10.504V9.288C109.285 8.81867 109.141 8.49867 108.853 8.328C108.576 8.14667 108.096 8.056 107.413 8.056C106.752 8.056 106.272 8.14667 105.973 8.328C105.675 8.49867 105.525 8.81867 105.525 9.288V10.504H109.285ZM118.152 11.512C118.013 12.248 117.165 12.616 115.608 12.616C114.616 12.616 113.917 12.44 113.512 12.088C113.117 11.7253 112.92 11.16 112.92 10.392V7.256H114.36V10.296C114.36 10.7867 114.488 11.1227 114.744 11.304C115 11.4853 115.427 11.576 116.024 11.576C116.611 11.576 117.053 11.5387 117.352 11.464C117.661 11.3787 117.869 11.2453 117.976 11.064C118.093 10.8827 118.152 10.6267 118.152 10.296V7.256H119.592V15H118.152V11.512ZM122.092 7.256H123.532V10.472H127.34V7.256H128.78V15H127.34V11.528H123.532V15H122.092V7.256ZM131.279 7.256H132.751V10.056H134.255C134.917 10.056 135.439 10.104 135.823 10.2C136.218 10.296 136.506 10.4667 136.687 10.712C136.869 10.9467 136.959 11.2827 136.959 11.72V13.32C136.959 14.44 136.015 15 134.127 15H131.279V7.256ZM138.191 7.256H139.631V15H138.191V7.256ZM134.031 14.072C134.341 14.072 134.661 14.0293 134.991 13.944C135.365 13.848 135.551 13.576 135.551 13.128V12.152C135.551 11.8427 135.509 11.608 135.423 11.448C135.349 11.288 135.205 11.176 134.991 11.112C134.789 11.048 134.479 11.016 134.063 11.016H132.735V14.072H134.031ZM149.035 7.256V15H147.595V9.288L143.563 15H142.123V7.256H143.563V13.16L147.675 7.256H149.035ZM145.579 6.152C144.864 6.152 144.299 5.97067 143.883 5.608C143.467 5.23467 143.243 4.73867 143.211 4.12H144.395C144.47 4.952 144.864 5.368 145.579 5.368C146.283 5.368 146.678 4.952 146.763 4.12H147.947C147.926 4.728 147.702 5.21867 147.275 5.592C146.859 5.96533 146.294 6.152 145.579 6.152ZM54.976 33.16C54.3467 33.16 53.6213 33.0693 52.8 32.888V31.752C53.6 31.9867 54.3253 32.104 54.976 32.104C55.712 32.104 56.2507 32.024 56.592 31.864C56.9333 31.6933 57.104 31.3733 57.104 30.904V30.408C57.104 30.0133 56.928 29.752 56.576 29.624C56.2347 29.4853 55.7493 29.416 55.12 29.416H54.24V28.424H54.848C55.4987 28.424 55.9947 28.3493 56.336 28.2C56.6773 28.0507 56.848 27.784 56.848 27.4V26.92C56.848 26.3653 56.208 26.088 54.928 26.088C54.256 26.088 53.6 26.152 52.96 26.28V25.24C53.568 25.144 54.2187 25.096 54.912 25.096C55.7333 25.096 56.3733 25.1387 56.832 25.224C57.2907 25.3093 57.648 25.4693 57.904 25.704C58.1707 25.9387 58.304 26.3173 58.304 26.84V27.464C58.304 27.8053 58.176 28.088 57.92 28.312C57.6747 28.5253 57.3547 28.664 56.96 28.728V28.792C58.0587 28.9627 58.608 29.4373 58.608 30.216V31.016C58.608 31.3787 58.5333 31.704 58.384 31.992C58.2453 32.2693 58.0587 32.4827 57.824 32.632C57.504 32.8347 57.0987 32.9733 56.608 33.048C56.128 33.1227 55.584 33.16 54.976 33.16ZM60.9065 25.256H64.2985C64.9918 25.256 65.5465 25.2987 65.9625 25.384C66.3785 25.4587 66.6825 25.592 66.8745 25.784C67.0558 25.9653 67.1732 26.152 67.2265 26.344C67.2798 26.536 67.3065 26.8027 67.3065 27.144V27.416C67.3065 27.832 67.1998 28.1413 66.9865 28.344C66.7732 28.5467 66.4158 28.7013 65.9145 28.808V28.872C67.1518 29.0853 67.7705 29.624 67.7705 30.488V30.952C67.7705 31.4747 67.6638 31.8853 67.4505 32.184C67.2478 32.472 66.9065 32.68 66.4265 32.808C65.9465 32.936 65.2745 33 64.4105 33H60.9065V25.256ZM64.4265 28.52C64.8532 28.52 65.1732 28.488 65.3865 28.424C65.5998 28.3493 65.7438 28.2373 65.8185 28.088C65.8932 27.928 65.9305 27.688 65.9305 27.368V27.272C65.9305 26.984 65.8878 26.7707 65.8025 26.632C65.7278 26.4933 65.5785 26.3973 65.3545 26.344C65.1412 26.28 64.8158 26.248 64.3785 26.248H62.3465V28.52H64.4265ZM64.4905 31.96C64.9918 31.96 65.3705 31.928 65.6265 31.864C65.8825 31.8 66.0585 31.6987 66.1545 31.56C66.2505 31.4107 66.2985 31.192 66.2985 30.904V30.392C66.2985 30.1253 66.1865 29.9013 65.9625 29.72C65.7278 29.5493 65.2638 29.464 64.5705 29.464H62.3465V31.96H64.4905ZM71.8224 33.112L68.8304 25.256H70.3984L72.5584 31.576H72.5904L74.5424 25.256H75.9984L72.1104 36.328H70.6064L71.8224 33.112ZM77.3258 25.256H78.7658V28.6C78.9258 28.6 79.0538 28.568 79.1498 28.504C79.2564 28.4293 79.3844 28.3173 79.5338 28.168L82.2218 25.256H83.9818L80.4618 28.92C80.6004 28.952 80.7978 29.096 81.0538 29.352C81.3204 29.608 81.7098 30.024 82.2218 30.6L84.3818 33H82.6058L80.4938 30.6C80.2058 30.2693 79.9231 30.008 79.6458 29.816C79.4324 29.6773 79.2831 29.5973 79.1978 29.576C79.1124 29.544 79.0271 29.528 78.9418 29.528C78.8564 29.528 78.7978 29.528 78.7658 29.528V33H77.3258V25.256Z" fill="#292929"/>
<g clip-path="url(#clip0)">
<path d="M12.5923 0.788452C6.0838 0.788452 0.788452 6.52513 0.788452 13.6081C0.813499 15.2504 1.26379 16.8582 2.0954 18.2746C2.48837 18.9449 2.82485 19.6468 3.10135 20.373C3.28473 20.9068 3.10872 21.498 2.6633 21.8446C1.88835 22.4641 1.43928 23.404 1.44422 24.3962C1.44111 25.4864 1.9801 26.5069 2.88233 27.1189C3.20669 27.3393 3.40398 27.7033 3.41153 28.0954V33.577C3.41153 37.1929 6.05888 40.1347 9.31347 40.1347C12.5681 40.1347 15.2154 37.1929 15.2154 33.577C15.2054 30.8762 16.3799 28.3068 18.4287 26.5471C22.2694 23.3425 24.4615 18.5777 24.3962 13.576C24.3962 6.52513 19.1008 0.788452 12.5923 0.788452ZM17.5762 25.551C15.2357 27.5594 13.8934 30.4929 13.9039 33.577C13.9039 36.4696 11.8441 38.8231 9.31347 38.8231C6.78285 38.8231 4.72307 36.4696 4.72307 33.577V28.0954C4.71245 27.2832 4.31391 26.5251 3.65089 26.0559C3.09063 25.69 2.75372 25.0654 2.75576 24.3962C2.75126 23.793 3.02755 23.222 3.50334 22.8512C4.37644 22.1517 4.70981 20.9754 4.33355 19.9219C4.03153 19.1275 3.66367 18.3598 3.23382 17.6267C2.51115 16.3975 2.12043 15.0017 2.09999 13.576C2.09999 7.24845 6.80711 2.09999 12.5923 2.09999C18.3775 2.09999 23.0846 7.24845 23.0846 13.576C23.1447 18.1933 21.1213 22.592 17.5762 25.551Z" fill="black"/>
<path d="M12.5923 4.06729C8.9377 4.06729 5.82148 6.6589 4.61158 10.2814C4.60306 10.303 4.59715 10.324 4.5906 10.3469C4.24485 11.3989 4.06778 12.4989 4.06598 13.6061C4.06598 14.3931 4.06598 16.7997 5.56966 18.3034C5.82697 18.5519 6.23598 18.5484 6.48893 18.2954C6.74189 18.0425 6.74544 17.6335 6.49692 17.3762C5.95817 16.7773 5.61221 16.03 5.50408 15.2318C5.60966 15.2252 5.71393 15.2167 5.82344 15.2167C8.83343 15.2154 11.2808 17.9696 11.2808 21.3534C11.2808 21.6675 11.2657 21.9626 11.2414 22.2538C10.9149 22.6024 10.5676 22.9309 10.2014 23.2374C8.29139 24.8016 7.2328 27.1762 7.34614 29.6423C7.34614 30.0045 7.63974 30.2981 8.00191 30.2981C8.36409 30.2981 8.65768 30.0045 8.65768 29.6423C8.54487 27.563 9.43359 25.5552 11.0486 24.2408C13.3623 22.465 14.6711 19.6774 14.5596 16.763C14.5596 12.6579 11.4709 9.31345 7.67403 9.31345C7.23785 9.3146 6.80296 9.36075 6.37626 9.45117C7.51611 7.0315 9.91876 5.45745 12.5923 5.37883C16.5696 5.37883 19.8058 9.06885 19.8058 13.6048C19.8573 17.1782 18.3076 20.5872 15.5813 22.8977C15.4908 22.9758 15.3905 23.0597 15.2816 23.1509C13.9766 24.2355 11.2624 26.4953 10.6289 32.1933C10.5906 32.5523 10.8498 32.8748 11.2086 32.9146C11.2325 32.9181 11.2566 32.9203 11.2808 32.9212C11.6148 32.9209 11.8952 32.6695 11.9319 32.3376C12.5071 27.1635 14.8567 25.2087 16.1197 24.1588C16.2358 24.0617 16.3427 23.9725 16.4384 23.8899C19.4567 21.3331 21.1731 17.5601 21.1173 13.6048C21.1173 8.34554 17.2929 4.06729 12.5923 4.06729ZM7.67403 10.625C10.7476 10.625 13.2481 13.3792 13.2481 16.763C13.2778 18.0038 13.0314 19.2358 12.5267 20.3697C12.0867 16.7237 9.25247 13.9038 5.82476 13.9038C5.67327 13.9038 5.52769 13.915 5.38145 13.9255C5.38145 13.7996 5.38145 13.6901 5.38145 13.6048C5.38169 12.7278 5.50712 11.8554 5.75393 11.0139C6.36201 10.7587 7.0146 10.6266 7.67403 10.625Z" fill="black"/>
<path d="M33.577 15.8712C33.6273 13.8043 34.5038 11.8439 36.0105 10.4283C36.1936 10.2657 36.2708 10.0148 36.2109 9.77745C36.151 9.54012 35.9639 9.35591 35.7257 9.29971C35.4874 9.2435 35.2377 9.32466 35.078 9.51019C33.3267 11.1684 32.3135 13.4598 32.2654 15.8712C32.3135 18.2825 33.3267 20.5739 35.078 22.2321C35.2377 22.4177 35.4874 22.4988 35.7257 22.4426C35.9639 22.3864 36.151 22.2022 36.2109 21.9649C36.2708 21.7275 36.1936 21.4766 36.0105 21.3141C34.5038 19.8984 33.6273 17.938 33.577 15.8712Z" fill="black"/>
<path d="M37.9477 12.1025C37.8178 11.9868 37.6472 11.9275 37.4736 11.9375C37.2999 11.9476 37.1374 12.0263 37.0217 12.1562C35.0519 14.2412 35.0519 17.5012 37.0217 19.5861C37.1775 19.7611 37.4149 19.8397 37.6443 19.7923C37.8738 19.7449 38.0605 19.5786 38.1342 19.3562C38.2078 19.1338 38.1572 18.8889 38.0014 18.7139C36.474 17.1265 36.474 14.6158 38.0014 13.0284C38.1171 12.8985 38.1764 12.7279 38.1664 12.5543C38.1563 12.3806 38.0776 12.2181 37.9477 12.1025Z" fill="black"/>
<path d="M39.9661 14.1209C39.7238 13.8519 39.3093 13.8302 39.0402 14.0724C38.489 14.5066 38.1674 15.1695 38.1674 15.8712C38.1674 16.5728 38.489 17.2358 39.0402 17.67C39.2134 17.8322 39.4608 17.8883 39.687 17.8164C39.9133 17.7445 40.083 17.556 40.1308 17.3235C40.1786 17.091 40.0971 16.8508 39.9176 16.6955C39.6633 16.4935 39.5045 16.1949 39.4789 15.8712C39.5045 15.5475 39.6633 15.2489 39.9176 15.0469C40.1866 14.8046 40.2083 14.3901 39.9661 14.1209Z" fill="black"/>
<path d="M30.2981 15.8712C30.2981 12.9858 31.5906 10.1974 34.036 7.81567C34.2037 7.65167 34.2713 7.41064 34.2131 7.18337C34.1549 6.95609 33.98 6.77711 33.7541 6.71383C33.5282 6.65056 33.2857 6.71261 33.1179 6.87661C30.4161 9.51018 28.9866 12.6205 28.9866 15.8712C28.9866 19.1218 30.4161 22.2321 33.1179 24.8657C33.3772 25.1192 33.793 25.1145 34.0465 24.8552C34.3 24.5959 34.2953 24.1802 34.036 23.9267C31.5906 21.5449 30.2981 18.7566 30.2981 15.8712Z" fill="black"/>
<path d="M27.0193 15.8712C27.0193 12.2684 28.542 8.79802 31.4241 5.83787C31.5881 5.66989 31.65 5.42718 31.5866 5.20116C31.5231 4.97514 31.3439 4.80016 31.1164 4.74212C30.8889 4.68409 30.6477 4.75181 30.4837 4.9198C27.3596 8.13307 25.7077 11.9201 25.7077 15.8712C25.7077 19.8222 27.3596 23.6092 30.4837 26.8225C30.7373 27.0822 31.1533 27.0872 31.413 26.8337C31.6727 26.5801 31.6776 26.1641 31.4241 25.9044C28.542 22.9443 27.0193 19.474 27.0193 15.8712Z" fill="black"/>
</g>
<defs>
<clipPath id="clip0">
<rect width="39.4231" height="39.3462" fill="white" transform="translate(0.788452 0.788452)"/>
</clipPath>
</defs>
</svg>
